<?xml version="1.0" encoding="utf-8"?>
<!-- Generator: Adobe Illustrator 17.1.0, SVG Export Plug-In . SVG Version: 6.00 Build 0)  -->
<!DOCTYPE svg PUBLIC "-//W3C//DTD SVG 1.1//EN" "http://www.w3.org/Graphics/SVG/1.1/DTD/svg11.dtd">
<svg version="1.1" id="Layer_1" xmlns="http://www.w3.org/2000/svg" xmlns:xlink="http://www.w3.org/1999/xlink" x="0px" y="0px"
	 viewBox="0 0 14.7 16.2" enable-background="new 0 0 14.7 16.2" xml:space="preserve">
<g>
	<path fill-rule="evenodd" clip-rule="evenodd" fill="#E4E4E4" d="M7,9C6.9,9,6.8,9,6.7,9C6.6,9,6.6,9,6.6,9.1c0,0.4,0,0.9,0,1.3
		c0,0,0,0.1,0,0.1c0,0.1-0.1,0.2-0.2,0.2c-0.1,0-0.1-0.1-0.1-0.1c0-0.1,0-0.1,0-0.2c0-0.5,0-0.9,0-1.4C6.4,9,6.4,9,6.3,9
		C6.2,9,6.1,9,6,9C5.9,9,5.9,9,5.9,9.1c0,0.6,0,1.1,0,1.7c0,0,0,0.1,0,0.1c0,0.3,0.2,0.4,0.5,0.3c0.1,0,0.1-0.1,0.2-0.1c0,0,0,0,0,0
		c0,0.1,0,0.1,0.1,0.1c0.1,0,0.2,0,0.3,0c0.1,0,0.1,0,0.1-0.1C7.1,10.4,7.1,9.8,7,9C7.1,9,7.1,9,7,9z"/>
	<path fill-rule="evenodd" clip-rule="evenodd" fill="#E4E4E4" d="M6,8.7c0-0.1,0-0.2,0-0.4c0-0.1,0-0.1-0.1-0.1c-0.4,0-0.9,0-1.3,0
		c-0.1,0-0.1,0-0.1,0.1c0,0.1,0,0.2,0,0.3c0,0.1,0,0.1,0.1,0.1c0.1,0,0.2,0,0.4,0c0,0,0,0.1,0,0.1c0,0.7,0,1.5,0,2.2
		c0,0.1,0,0.1,0.1,0.1c0.1,0,0.2,0,0.3,0c0.1,0,0.1,0,0.1-0.1c0-0.7,0-1.5,0-2.2c0,0,0-0.1,0-0.1C5.7,8.8,5.8,8.8,6,8.7
		C6,8.8,6,8.7,6,8.7z"/>
	<path fill-rule="evenodd" clip-rule="evenodd" fill="#E4E4E4" d="M7.4,6.9c0.1,0,0.2-0.1,0.2-0.2c0-0.2,0-0.4,0-0.5
		c0-0.2,0-0.4,0-0.6c0-0.1,0-0.2-0.1-0.2c-0.1,0-0.2,0-0.2,0.2c0,0.4,0,0.7,0,1.1c0,0,0,0.1,0,0.1C7.2,6.8,7.3,6.8,7.4,6.9z"/>
	<path fill-rule="evenodd" clip-rule="evenodd" fill="#E4E4E4" d="M8.6,9.3C8.5,9,8.2,8.9,7.9,9.1c0,0,0,0-0.1,0c0-0.3,0-0.5,0-0.7
		c0-0.1,0-0.1-0.1-0.1c-0.1,0-0.2,0-0.3,0c-0.1,0-0.1,0-0.1,0.1c0,0.4,0,0.9,0,1.3c0,0.5,0,0.9,0,1.4c0,0.1,0,0.1,0.1,0.1
		c0.1,0,0.2,0,0.3,0c0.1,0,0.1,0,0.1-0.1c0,0,0,0,0.1,0c0.2,0.1,0.4,0.1,0.5-0.1c0.1-0.1,0.1-0.2,0.1-0.4c0-0.4,0-0.8,0-1.2
		C8.6,9.4,8.6,9.3,8.6,9.3z M8.1,10.7c0,0.1,0,0.1-0.1,0.1c-0.1,0-0.1-0.1-0.1-0.1c0-0.2,0-0.4,0-0.6c0-0.2,0-0.4,0-0.6
		c0-0.1,0-0.1,0.1-0.1c0.1,0,0.1,0,0.1,0.1c0,0,0,0,0,0.1C8.1,9.9,8.1,10.3,8.1,10.7z"/>
	<path fill-rule="evenodd" clip-rule="evenodd" fill="#E4E4E4" d="M9.4,10.2c0.2,0,0.4,0,0.6,0c0.1,0,0.1,0,0.1-0.1
		c0-0.2,0-0.4,0-0.6C10,9.3,10,9.1,9.8,9c-0.4-0.2-1,0-1,0.5c0,0.4,0,0.7,0,1.1c0,0.2,0.1,0.3,0.2,0.4c0.2,0.2,0.4,0.2,0.6,0.1
		c0.2,0,0.3-0.2,0.4-0.4c0-0.1,0-0.3,0.1-0.5c0-0.1,0-0.1-0.1-0.1c-0.1,0-0.2,0-0.3,0c-0.1,0-0.1,0-0.1,0.1c0,0.1,0,0.2,0,0.3
		c0,0.1-0.1,0.1-0.2,0.1c-0.1,0-0.1-0.1-0.1-0.1C9.3,10.5,9.3,10.3,9.4,10.2C9.3,10.2,9.4,10.2,9.4,10.2z M9.3,9.8
		c0-0.1,0-0.2,0-0.3c0-0.1,0-0.1,0.1-0.1c0.1,0,0.1,0,0.1,0.1c0,0.1,0,0.2,0,0.3C9.5,9.8,9.4,9.8,9.3,9.8z"/>
	<path fill-rule="evenodd" clip-rule="evenodd" fill="#E4E4E4" d="M7.3,2.3c-3.2,0-5.8,2.6-5.8,5.8c0,3.2,2.6,5.8,5.8,5.8
		c3.2,0,5.8-2.6,5.8-5.8C13.1,4.9,10.5,2.3,7.3,2.3z M8.3,5.1c0.1,0,0.2,0,0.3,0c0,0,0,0,0.1,0c0,0,0,0.1,0,0.1c0,0.5,0,0.9,0,1.4
		c0,0,0,0.1,0,0.1c0,0,0,0.1,0.1,0.1c0,0,0.1,0,0.1,0C9,6.7,9,6.7,9,6.5c0-0.5,0-0.9,0-1.4c0,0,0-0.1,0-0.1c0.1,0,0.3,0,0.4,0
		c0,0.7,0,1.4,0,2.1c-0.1,0-0.2,0-0.4,0C9,7.1,9,7,9,6.9C9,7,9,7,8.9,7C8.8,7.1,8.7,7.2,8.6,7.2c-0.1,0-0.3,0-0.3-0.2
		c0-0.1,0-0.1,0-0.2C8.3,6.3,8.3,5.7,8.3,5.1C8.3,5.1,8.3,5.1,8.3,5.1z M7.2,5C7.4,5,7.7,5,7.8,5.2c0.1,0.1,0.1,0.2,0.1,0.3
		c0,0.4,0,0.8,0,1.2c0,0.3-0.2,0.5-0.5,0.5c-0.2,0-0.4,0-0.5-0.2C6.9,6.9,6.8,6.8,6.8,6.7c0-0.2,0-0.4,0-0.6h0c0-0.2,0-0.4,0-0.6
		C6.8,5.3,7,5.1,7.2,5z M5.8,4.3C5.8,4.3,5.8,4.4,5.8,4.3C5.9,4.7,6,5.1,6.1,5.4c0,0,0,0,0,0.1c0,0,0,0,0,0c0-0.1,0-0.1,0-0.2
		C6.2,5,6.3,4.7,6.4,4.4c0,0,0-0.1,0.1-0.1c0.1,0,0.2,0,0.4,0c0,0,0,0.1,0,0.1c-0.2,0.5-0.3,1-0.5,1.5c0,0,0,0.1,0,0.2
		c0,0.3,0,0.7,0,1c0,0,0,0.1,0,0.1c-0.1,0-0.3,0-0.4,0c0,0,0-0.1,0-0.1c0-0.3,0-0.6,0-1c0-0.1,0-0.1,0-0.2c-0.2-0.5-0.3-1-0.5-1.5
		c0,0,0,0,0-0.1C5.5,4.3,5.7,4.3,5.8,4.3z M10.5,10.5c0,0.2,0,0.5-0.1,0.7c-0.1,0.4-0.4,0.7-0.8,0.7c-1.2,0-2.5,0.1-3.7,0
		c-0.3,0-0.6,0-0.9,0c-0.4,0-0.8-0.4-0.8-0.8c0-0.6-0.1-1.2,0-1.8c0-0.3,0-0.6,0.1-0.9C4.2,8,4.6,7.7,5,7.6c0.6,0,1.2,0,1.8,0
		c0.2,0,0.4,0,0.5,0c0,0,0,0,0,0c0.7,0,1.5,0,2.2,0c0.4,0,0.7,0.2,0.9,0.5c0.1,0.2,0.1,0.4,0.1,0.5C10.5,9.3,10.6,9.9,10.5,10.5z"/>
</g>
</svg>
