<?xml version="1.0" encoding="utf-8"?>
<!-- Generator: Adobe Illustrator 17.1.0, SVG Export Plug-In . SVG Version: 6.00 Build 0)  -->
<!DOCTYPE svg PUBLIC "-//W3C//DTD SVG 1.1//EN" "http://www.w3.org/Graphics/SVG/1.1/DTD/svg11.dtd">
<svg version="1.1" id="Layer_1" xmlns="http://www.w3.org/2000/svg" xmlns:xlink="http://www.w3.org/1999/xlink" x="0px" y="0px"
	 viewBox="0 0 15.1 14.7" enable-background="new 0 0 15.1 14.7" xml:space="preserve">
<path fill-rule="evenodd" clip-rule="evenodd" fill="#E4E4E4" d="M8.3,1.7c3.2,0,5.8,2.6,5.8,5.8c0,3.2-2.6,5.8-5.8,5.8
	c-3.2,0-5.8-2.6-5.8-5.8C2.5,4.3,5.1,1.7,8.3,1.7L8.3,1.7z M11.6,7.5C11.6,7.5,11.6,7.5,11.6,7.5l0.1-0.2c0.3,0,0.4,0,0.6-0.1
	l0.4-0.3c-0.1,0-0.3,0-0.5,0l-0.5-0.1c0,0,0.1,0,0.1,0c0.1,0,0.1,0,0.2,0c0.1,0,0.2,0,0.3-0.1l0.4-0.3c-0.2,0.1-0.3,0.1-0.5,0.1
	c-0.1,0-0.5,0-0.5-0.1c0-0.1,0-0.2-0.1-0.4c-0.1-0.1-0.1-0.3-0.2-0.4c-0.2-0.2-0.4-0.4-0.6-0.6l-1-0.3c0.1-0.1,0.3-0.1,0.4-0.1
	c0.4-0.1,0.4-0.3,0.3-0.3c-0.1,0-0.5,0.1-0.6,0.1L10,4.1c-0.3,0-0.4,0.2-0.6,0.3l0.1-0.2C9.2,4.3,8.8,4.9,8.6,5.1L8.1,6.3
	c0,0-0.4-0.3-0.6-0.5C7.3,5.7,7,5.5,6.8,5.4C6.2,5.2,5.7,5,5.1,4.8c0,0.5,0.3,0.8,0.7,1.1L5.4,5.9c0,0.2,0.2,0.5,0.3,0.6
	C5.9,6.7,6,6.7,6.3,6.8l0,0C6,6.9,6.1,6.8,5.8,7c0,0.1,0.3,0.4,0.5,0.5l0.5,0.1c0,0-0.1,0.1-0.1,0.1c-0.1,0-0.1,0.1-0.1,0.1
	C6.5,7.9,6.5,8,6.5,8.1l0.6,0.3c0,0.1-0.2,0.2-0.3,0.3C6.4,8.9,6,9,5.5,9.1c-0.4,0-0.7-0.1-1-0.2C4.2,8.8,4.1,8.7,3.9,8.5
	c0.1,0.1,0.2,0.3,0.3,0.4c0.9,1,2.4,1.5,4,1.3c1-0.2,1.6-0.5,2.1-0.9c0.1-0.1,0.3-0.3,0.4-0.3C11,8.6,11.2,8.3,11.4,8
	C11.4,7.9,11.6,7.6,11.6,7.5L11.6,7.5z"/>
</svg>
